<svg width="330" height="219" fill="none" xmlns="http://www.w3.org/2000/svg"><path d="M244.888 32.147c53.57 35.485 107.296 54.077 68.67 128.755-29.445 56.926-28.326 52.361-187.979 43.593-54.94-7.541-167.603-42.564-94.426-147.456 36.2-51.888 145.637-70 213.735-24.892Z" fill="#fff"/><path d="M191.396 8.26c8.811 4.064 18.068 8.021 27.421 12.02 22.317 9.54 45.177 19.312 63.823 31.315 26.431 17.016 44.194 38.393 39.865 69.755-2.177 15.769-6.574 28.153-13.642 38.072-7.067 9.916-16.829 17.403-29.794 23.34-25.962 11.887-64.669 17.517-120.047 23.994-31.26-.005-70.09-7.708-100.188-23.829-30.111-16.128-51.362-40.6-47.784-74.133 1.577-14.787 9.495-30.371 21.565-44.97 12.066-14.593 28.254-28.168 46.312-38.935C115.072 3.337 158.556-6.884 191.396 8.26Z" stroke="#000"/><path d="M234.936 46.73a1.504 1.504 0 0 1-.432-2.944 1.5 1.5 0 0 1 1.353.255 1.484 1.484 0 0 1 .568 1 1.502 1.502 0 0 1-1.489 1.688Zm.003-2.553a1.042 1.042 0 0 0-1.04 1.142 1.044 1.044 0 1 0 1.04-1.143ZM230.129 39.541a.225.225 0 0 1-.208-.14.225.225 0 0 1 .05-.247l.891-.878a.224.224 0 0 1 .248-.05.223.223 0 0 1 .123.125.237.237 0 0 1 .016.088.22.22 0 0 1-.07.16l-.89.878a.23.23 0 0 1-.16.064ZM227.012 42.61a.223.223 0 0 1-.208-.14.225.225 0 0 1 .05-.246l.891-.878a.225.225 0 0 1 .382.164c0 .059-.023.116-.065.158l-.891.878a.229.229 0 0 1-.159.064ZM227.913 39.53a.229.229 0 0 1-.16-.066l-.883-.886a.237.237 0 0 1-.05-.073.218.218 0 0 1-.018-.087.222.222 0 0 1 .141-.21.221.221 0 0 1 .174 0c.028.012.053.03.074.051l.882.885a.227.227 0 0 1-.16.387ZM231.003 42.63a.227.227 0 0 1-.16-.066l-.883-.886a.224.224 0 0 1-.002-.322.22.22 0 0 1 .161-.066.231.231 0 0 1 .161.069l.883.886a.224.224 0 0 1 .061.116.224.224 0 0 1-.221.27ZM123.041 201.621a.22.22 0 0 1-.196-.115.229.229 0 0 1-.03-.114.232.232 0 0 1 .033-.114l.573-.952a.22.22 0 0 1 .227-.107c.03.004.058.014.083.03a.22.22 0 0 1 .107.227.222.222 0 0 1-.029.083l-.573.953a.23.23 0 0 1-.195.109ZM121.036 204.957a.224.224 0 0 1-.193-.339l.573-.952a.22.22 0 0 1 .227-.107.208.208 0 0 1 .083.03.204.204 0 0 1 .065.059.219.219 0 0 1 .042.168.208.208 0 0 1-.03.083l-.572.953a.242.242 0 0 1-.084.078.236.236 0 0 1-.111.027ZM121.13 202.103a.225.225 0 0 1-.116-.032l-.955-.568a.226.226 0 1 1 .231-.388l.956.567a.235.235 0 0 1 .094.11.232.232 0 0 1 .008.145.224.224 0 0 1-.218.166ZM124.477 204.09a.222.222 0 0 1-.115-.032l-.957-.567a.262.262 0 0 1-.065-.059.238.238 0 0 1-.043-.168.236.236 0 0 1 .089-.149.222.222 0 0 1 .168-.043.251.251 0 0 1 .083.03l.955.568a.225.225 0 0 1-.115.42ZM84.798 194.445h71.295c3.033 0 5.492-2.495 5.492-5.573l-6.951-146.271c0-3.079-2.455-5.573-5.492-5.573H77.847c-3.033 0-5.491 2.494-5.491 5.573l6.95 146.271c0 3.078 2.459 5.573 5.492 5.573Z" fill="#000"/><path d="M89.63 194.476h71.295c3.033 0 5.492-2.484 5.492-5.548l-6.951-146.01c0-3.065-2.455-5.55-5.492-5.55H82.679c-3.032 0-5.492 2.485-5.492 5.55l6.951 146.009c0 3.065 2.46 5.549 5.492 5.549Z" fill="#fff"/><path d="M131.432 194.513H89.631c-3.153 0-5.718-2.591-5.718-5.774l-2.647-49.422a.227.227 0 0 1 .452-.023l2.647 49.432c0 2.947 2.362 5.335 5.266 5.335h41.801a.225.225 0 0 1 .226.226c0 .06-.024.117-.066.16a.229.229 0 0 1-.16.066Z" fill="#000"/><path d="M81.494 139.531a.224.224 0 0 1-.226-.216l-4.304-96.579c0-3.194 2.565-5.784 5.719-5.784h71.294c3.153 0 5.718 2.59 5.718 5.774l1.203 26.075a.231.231 0 0 1-.055.17.221.221 0 0 1-.16.078.226.226 0 0 1-.236-.227l-1.206-26.08c0-2.945-2.363-5.332-5.266-5.332H82.681c-2.905 0-5.267 2.387-5.267 5.32l4.304 96.562a.226.226 0 0 1-.13.214.213.213 0 0 1-.086.021l-.008.004Z" fill="#000"/><path d="M92.938 190.303h65.107c2.77 0 5.013-2.269 5.013-5.068l-6.863-138.27c0-2.798-2.244-5.066-5.013-5.066H86.075c-2.77 0-5.013 2.268-5.013 5.067l6.862 138.269c-.002 2.799 2.243 5.068 5.014 5.068Z" fill="#fff"/><path d="M158.045 190.529H92.938c-2.89 0-5.242-2.374-5.242-5.293L80.834 46.977c0-2.93 2.353-5.304 5.241-5.304h65.107c2.891 0 5.242 2.375 5.242 5.293l6.862 138.263c0 2.926-2.351 5.3-5.241 5.3ZM86.075 42.125c-2.637 0-4.786 2.172-4.786 4.84l6.855 138.264c0 2.68 2.148 4.852 4.79 4.852h65.107c2.641 0 4.789-2.172 4.789-4.841l-6.856-138.263c0-2.68-2.148-4.851-4.79-4.851H86.075Z" fill="#000"/><path d="M85.813 86.102a.227.227 0 0 1-.227-.216l-.622-13.112a.227.227 0 0 1 .216-.238.234.234 0 0 1 .236.216l.621 13.113a.225.225 0 0 1-.215.236l-.009.001ZM154.559 74.02a.226.226 0 0 1-.156-.064.225.225 0 0 1-.071-.153l-1.156-24.398c0-2.586-1.974-4.68-4.399-4.68H88.712c-2.427 0-4.4 2.094-4.4 4.669l.88 18.524a.227.227 0 0 1-.216.237.23.23 0 0 1-.237-.215l-.879-18.535c0-2.835 2.177-5.133 4.854-5.133h60.063c2.677 0 4.854 2.298 4.854 5.122l1.156 24.388a.235.235 0 0 1-.013.087.222.222 0 0 1-.203.149l-.012.001ZM159.701 162.138a.222.222 0 0 1-.156-.062.228.228 0 0 1-.07-.153l-.975-20.564a.238.238 0 0 1 .013-.088.24.24 0 0 1 .117-.128.253.253 0 0 1 .086-.021.232.232 0 0 1 .236.215l.975 20.564a.223.223 0 0 1-.059.163.222.222 0 0 1-.156.074h-.011ZM149.269 188.109h-38.72a.229.229 0 0 1-.16-.066.229.229 0 0 1 0-.32.225.225 0 0 1 .16-.066h38.718a.225.225 0 0 1 .226.226c0 .06-.024.117-.066.16a.229.229 0 0 1-.16.066h.002ZM105.712 188.108h-10.67c-2.676 0-4.853-2.296-4.853-5.121l-.845-17.842a.224.224 0 0 1 .376-.176c.044.04.07.095.075.155l.846 17.853c0 2.585 1.974 4.679 4.4 4.679h10.671c.06 0 .117.024.16.066a.229.229 0 0 1 0 .32.225.225 0 0 1-.16.066ZM163.988 139.286a.229.229 0 0 1-.226-.215l-1.658-32.108a.225.225 0 0 1 .215-.238.233.233 0 0 1 .237.214l1.658 32.111a.223.223 0 0 1-.057.163.223.223 0 0 1-.156.075l-.013-.002Z" fill="#000"/><path d="M121.687 141.956c16.557 0 29.979-13.422 29.979-29.978 0-16.557-13.422-29.979-29.979-29.979-16.556 0-29.978 13.422-29.978 29.979 0 16.556 13.422 29.978 29.978 29.978Z" fill="#fff"/><path d="M121.688 142.182c-16.655 0-30.205-13.55-30.205-30.205 0-16.654 13.55-30.204 30.205-30.204 16.655 0 30.206 13.55 30.206 30.204 0 16.655-13.55 30.205-30.206 30.205Zm0-59.953c-16.405 0-29.752 13.347-29.752 29.753 0 16.405 13.347 29.752 29.752 29.752s29.753-13.346 29.753-29.752c0-16.407-13.347-29.757-29.753-29.757v.004Z" fill="#000"/><path d="M122.908 142.037c4.615 0 8.823-1.614 12.776-3.392-1.219-11.21-2.633-19.78-2.633-19.78l-24.759-4.325-2.471 7.052a100.34 100.34 0 0 0-2.698 9.175c-.183.754-.798 2.723-1.023 3.809 5.451 4.613 13.245 7.461 20.808 7.461Z" fill="#fff"/><path d="M122.908 142.259c-7.564 0-15.395-2.809-20.951-7.516a.221.221 0 0 1-.074-.217c.14-.69.438-1.74.679-2.582.146-.511.273-.958.341-1.236a101.042 101.042 0 0 1 2.704-9.196l2.471-7.05a.226.226 0 0 1 .252-.148l24.759 4.325a.225.225 0 0 1 .184.185c.014.086 1.432 8.705 2.635 19.793a.226.226 0 0 1-.132.23c-3.939 1.775-8.223 3.412-12.868 3.412Zm-20.555-7.775c5.47 4.587 13.142 7.322 20.555 7.322 4.502 0 8.682-1.58 12.534-3.305-1.111-10.173-2.392-18.229-2.589-19.446l-24.411-4.259-2.409 6.869a99.803 99.803 0 0 0-2.691 9.154c-.069.286-.197.734-.345 1.253-.223.784-.498 1.746-.644 2.417v-.005Z" fill="#000"/><path d="M132.525 81.601c-4.316-.487-13.531-1.36-19.869-.78-1.914.176-4.676 1.344-6.131 2.6-4.286 3.694-12.372 11.843-13.723 21.618a2.762 2.762 0 0 0 2.148 3.077l7.469 1.656s-2.98 11.738-2.741 13.764c.24 2.027 6.412 5.477 14.131 2.648 6.019-2.207 14.537-3.961 19.95-2.057.051.017.569 4.173.622 4.181 1.739.253 3.487-.423 3.445-2.864l-.824-12.677 9.897-1.303.884-.295a4.907 4.907 0 0 0 2.904-2.583 4.932 4.932 0 0 0 .124-3.885c-2.326-5.923-5.835-15.507-12.332-20.8-1.394-1.133-4.172-2.1-5.954-2.3Z" fill="#000"/><path d="M111.972 94.638a11.863 11.863 0 0 1-2.618 2.02c-3.248 1.85-11.007 6.329-12.938 7.981-2.455 2.101-3.635 2.885-1.659 8.287 3.222 8.811 18.245-13.812 18.245-13.812s4.411.798 5.403-3.07c0 0 2.299.433 3.257.017.736-.319.704-1.566-.277-1.703l-6.343-1.184a2.683 2.683 0 0 0-2.389.766l-.681.698Z" fill="#fff"/><path d="M97.147 115.189c-.105 0-.21-.006-.313-.018-1.04-.123-1.812-.853-2.293-2.167-1.97-5.392-.808-6.382 1.508-8.355l.218-.185c1.944-1.663 9.72-6.15 12.973-8.002a11.636 11.636 0 0 0 2.57-1.981l.677-.694a2.905 2.905 0 0 1 2.591-.83l6.343 1.184a1.088 1.088 0 0 1 .961.946 1.122 1.122 0 0 1-.635 1.186c-.846.367-2.585.131-3.184.035-1.013 3.398-4.669 3.149-5.457 3.054-1.051 1.573-10.755 15.827-15.959 15.827Zm14.983-20.392c-.789.807-1.686 1.5-2.667 2.058-3.241 1.842-10.987 6.316-12.902 7.953l-.218.185c-2.29 1.952-3.24 2.762-1.376 7.855.422 1.158 1.052 1.771 1.92 1.873.092.012.185.017.277.017 5.128 0 15.54-15.585 15.646-15.745a.226.226 0 0 1 .229-.102c.172.032 4.218.716 5.144-2.901a.227.227 0 0 1 .261-.167c.621.117 2.393.35 3.126.032a.672.672 0 0 0 .366-.71.641.641 0 0 0-.586-.562l-6.356-1.185a2.455 2.455 0 0 0-2.187.701l-.677.698Z" fill="#000"/><path d="M139.369 103.833a.232.232 0 0 1-.132-.042.232.232 0 0 1-.082-.111c-.072-.21-1.752-5.188-1.535-8.894a.229.229 0 0 1 .24-.213.227.227 0 0 1 .213.24c-.215 3.617 1.489 8.67 1.507 8.721a.237.237 0 0 1-.011.173.262.262 0 0 1-.054.07.234.234 0 0 1-.146.056ZM137.442 95.335a2.541 2.541 0 0 0-1.432 1.156c-.464.823-.433 1.872-.212 1.935.186.052.62-.56 1.644-3.091Z" fill="#fff"/><path d="M135.837 98.66a.37.37 0 0 1-.344-.258c-.165-.397-.074-1.33.318-2.022a2.764 2.764 0 0 1 1.563-1.26.228.228 0 0 1 .29.175.223.223 0 0 1-.013.125c-1.13 2.796-1.525 3.24-1.814 3.24Zm1.182-2.883a2.25 2.25 0 0 0-.813.83c-.255.457-.369.98-.326 1.502.156-.208.488-.772 1.139-2.336v.004Z" fill="#000"/><path d="M137.622 93.6a10.467 10.467 0 0 0-.779-3.57c-.646-1.556-1.813-3.275-2.229-3.105-.339.136-.108 1.505.046 2.155.227.951.862 2.74 2.962 4.52Z" fill="#fff"/><path d="M137.623 93.827a.23.23 0 0 1-.147-.053c-1.58-1.336-2.63-2.942-3.036-4.642-.194-.811-.44-2.205.09-2.416.777-.307 2.119 2.257 2.521 3.226.478 1.16.748 2.395.798 3.649a.225.225 0 0 1-.226.236Zm-2.918-6.68c-.088.194-.042.973.175 1.88.348 1.456 1.201 2.842 2.48 4.037a10.2 10.2 0 0 0-.727-2.948c-.63-1.52-1.601-2.854-1.928-2.969Z" fill="#000"/><path d="M138.035 93.356a8.075 8.075 0 0 1 1.783-3.125c2.189-2.353 5.583-2.994 5.853-2.498.145.266-.726.644-2.686 2.809-1.304 1.442-1.743 2.19-2.868 2.609a4.38 4.38 0 0 1-2.082.205Z" fill="#fff"/><path d="M138.665 93.623c-.221 0-.441-.014-.66-.043a.228.228 0 0 1-.187-.291 8.234 8.234 0 0 1 1.835-3.207c1.906-2.047 4.697-2.843 5.729-2.713.248.031.41.119.489.26.158.29-.076.5-.59.96a26.37 26.37 0 0 0-2.128 2.106c-.275.307-.512.577-.724.819-.809.933-1.298 1.496-2.239 1.841-.488.18-1.005.27-1.525.268Zm-.329-.464a4.048 4.048 0 0 0 1.698-.224c.832-.307 1.266-.807 2.053-1.716.215-.247.453-.523.73-.828.679-.756 1.4-1.471 2.16-2.144.158-.135.309-.278.452-.43-.499-.204-3.468.447-5.446 2.567a7.733 7.733 0 0 0-1.647 2.775Z" fill="#000"/><path d="M137.764 94.235c-.528-.764-1.464-1.875-2.931-2.542-.921-.42-2.421-.83-2.634-.41-.228.456 1.011 1.9 2.456 2.574 1.233.579 2.412.496 3.109.378Z" fill="#fff"/><path d="M136.769 94.547a5.186 5.186 0 0 1-2.211-.482c-1.241-.578-2.327-1.69-2.564-2.367a.643.643 0 0 1 0-.512c.41-.818 2.903.289 2.928.301 1.177.534 2.194 1.416 3.025 2.62a.223.223 0 0 1-.046.306.225.225 0 0 1-.103.045 6.12 6.12 0 0 1-1.029.09Zm-4.121-3.216c-.133 0-.221.02-.249.058-.102.228.845 1.564 2.354 2.266a4.853 4.853 0 0 0 2.606.41c-.74-.983-1.621-1.71-2.622-2.165-.839-.381-1.68-.57-2.089-.57Z" fill="#000"/><path d="M139.298 105.243a.228.228 0 0 1-.182-.092c-.132-.179-3.223-4.426-4.121-8.03a.218.218 0 0 1-.004-.088.209.209 0 0 1 .03-.083.22.22 0 0 1 .139-.103.226.226 0 0 1 .274.165c.877 3.517 4.014 7.829 4.046 7.872a.227.227 0 0 1-.048.316.245.245 0 0 1-.134.043ZM134.985 97.7a2.544 2.544 0 0 0-1.023 1.535c-.196.921.147 1.916.377 1.91.195-.008.426-.722.646-3.444Z" fill="#fff"/><path d="M134.337 101.368a.367.367 0 0 1-.165-.045.366.366 0 0 1-.128-.113c-.277-.331-.468-1.243-.302-2.025a2.759 2.759 0 0 1 1.114-1.67.226.226 0 0 1 .355.204c-.272 3.366-.541 3.64-.865 3.649h-.009Zm.373-3.123c-.264.292-.446.649-.527 1.034a2.635 2.635 0 0 0 .138 1.535c.09-.245.237-.883.391-2.57h-.002Z" fill="#000"/><path d="M134.638 95.99a10.488 10.488 0 0 0-1.813-3.17c-1.082-1.292-2.708-2.579-3.054-2.297-.284.232.346 1.469.687 2.047.502.833 1.644 2.355 4.18 3.42Z" fill="#fff"/><path d="M134.638 96.22a.221.221 0 0 1-.088-.017c-1.907-.803-3.389-2.02-4.286-3.52-.427-.717-1.078-1.973-.636-2.333.647-.527 2.696 1.52 3.37 2.325.803.962 1.43 2.058 1.853 3.238a.228.228 0 0 1-.057.242.226.226 0 0 1-.156.065Zm-4.714-5.51c-.026.21.251.94.729 1.739.768 1.285 1.996 2.353 3.573 3.111a10.105 10.105 0 0 0-1.578-2.597c-1.052-1.262-2.377-2.246-2.724-2.256v.003Z" fill="#000"/><path d="M133.364 97.953a10.467 10.467 0 0 0-1.813-3.172c-1.081-1.29-2.707-2.578-3.053-2.295-.285.231.345 1.469.687 2.046.496.834 1.641 2.354 4.179 3.421Z" fill="#fff"/><path d="M133.364 98.18a.24.24 0 0 1-.088-.018c-1.907-.803-3.389-2.02-4.284-3.521-.429-.716-1.08-1.973-.638-2.333.647-.527 2.697 1.52 3.376 2.326.803.964 1.43 2.061 1.852 3.243a.232.232 0 0 1 .013.108.233.233 0 0 1-.12.173.23.23 0 0 1-.106.026l-.005-.004Zm-4.714-5.512c-.026.211.252.94.729 1.74.768 1.284 1.996 2.353 3.574 3.11a10.134 10.134 0 0 0-1.575-2.596c-1.06-1.26-2.384-2.242-2.731-2.254h.003Z" fill="#000"/><path d="M134.958 95.635a8.076 8.076 0 0 1 .767-3.517c1.387-2.896 4.432-4.525 4.837-4.134.218.21-.5.833-1.721 3.485-.814 1.764-1.013 2.613-1.963 3.344a4.397 4.397 0 0 1-1.92.822Z" fill="#fff"/><path d="M134.958 95.861a.227.227 0 0 1-.226-.226 8.232 8.232 0 0 1 .789-3.61c1.208-2.523 3.635-4.118 4.655-4.297.245-.044.428-.01.544.103.236.229.076.5-.276 1.093-.516.855-.983 1.74-1.398 2.648-.172.373-.315.703-.445 1-.493 1.133-.79 1.817-1.585 2.43a4.578 4.578 0 0 1-2.019.864.174.174 0 0 1-.039-.005Zm5.376-7.723c-.589 0-3.171 1.5-4.405 4.08a7.742 7.742 0 0 0-.742 3.14 4.049 4.049 0 0 0 1.553-.724c.702-.54.967-1.149 1.447-2.25.13-.3.275-.634.448-1.01.422-.922.896-1.82 1.42-2.69.112-.176.215-.358.307-.545l-.028-.001Z" fill="#000"/><path d="M134.958 96.557c-.732-.573-1.959-1.353-3.558-1.55-1.006-.125-2.558-.069-2.633.4-.082.503 1.534 1.51 3.116 1.72a5.246 5.246 0 0 0 3.075-.57Z" fill="#fff"/><path d="M132.511 97.395c-.22 0-.44-.014-.658-.043-1.357-.18-2.727-.92-3.155-1.493a.665.665 0 0 1-.156-.488c.147-.901 2.858-.592 2.886-.588 1.282.157 2.515.695 3.669 1.595a.227.227 0 0 1-.036.38 5.605 5.605 0 0 1-2.55.637Zm-2.056-2.22c-.802 0-1.419.13-1.465.269-.033.25 1.273 1.24 2.923 1.459a4.857 4.857 0 0 0 2.608-.39c-1-.716-2.058-1.147-3.149-1.282a7.641 7.641 0 0 0-.917-.056Z" fill="#000"/><path d="M142.618 94.634a6.146 6.146 0 0 1 1.228-2.988c1.749-2.225 4.898-2.745 5.133-2.307.171.319-1.104 1.32-3.452 3.165a56.484 56.484 0 0 1-2.909 2.13Z" fill="#fff"/><path d="M142.618 94.86a.229.229 0 0 1-.171-.077.225.225 0 0 1-.053-.18 6.297 6.297 0 0 1 1.269-3.097c1.523-1.936 4.043-2.61 4.987-2.528.273.025.445.102.524.255.25.467-.46 1.051-3.511 3.447a55.82 55.82 0 0 1-2.917 2.142.235.235 0 0 1-.128.039Zm5.88-5.441c-.829 0-3.069.578-4.48 2.366a5.735 5.735 0 0 0-1.085 2.353 57.403 57.403 0 0 0 2.455-1.815c1.705-1.34 3.187-2.504 3.364-2.878a.838.838 0 0 0-.254-.026Z" fill="#000"/><path d="M141.446 100.069a6.136 6.136 0 0 1 1.228-2.988c1.749-2.225 4.899-2.745 5.133-2.307.171.319-1.104 1.32-3.452 3.164a52.739 52.739 0 0 1-2.909 2.131Z" fill="#fff"/><path d="M141.447 100.295a.237.237 0 0 1-.094-.02.238.238 0 0 1-.077-.057.23.23 0 0 1-.053-.18 6.297 6.297 0 0 1 1.269-3.098c1.523-1.935 4.043-2.61 4.987-2.528.273.024.445.103.524.255.25.468-.46 1.052-3.51 3.448a54.415 54.415 0 0 1-2.918 2.14.225.225 0 0 1-.128.04Zm5.881-5.442c-.83 0-3.07.578-4.481 2.367a5.735 5.735 0 0 0-1.085 2.353 54.155 54.155 0 0 0 2.449-1.815c1.706-1.34 3.188-2.505 3.365-2.88a.838.838 0 0 0-.244-.025h-.004Z" fill="#000"/><path d="M142.301 94.609c.263-1.197.397-2.418.4-3.643.007-3.292-.949-5.127-1.167-5.524-.161-.296-.943-1.74-1.395-1.602-.39.112-.363 1.337-.312 3.158.047 1.688.071 2.533.263 3.353.214.908.743 2.534 2.211 4.258Z" fill="#fff"/><path d="M142.301 94.835a.228.228 0 0 1-.172-.08c-1.133-1.33-1.894-2.794-2.259-4.356-.197-.844-.222-1.698-.269-3.4-.063-2.23-.067-3.223.475-3.375.269-.078.734.013 1.656 1.71.361.666 1.202 2.547 1.195 5.638a17.482 17.482 0 0 1-.409 3.69.22.22 0 0 1-.059.109.223.223 0 0 1-.107.062.203.203 0 0 1-.051.002ZM140.2 84.053c-.225.143-.18 1.756-.147 2.934.046 1.67.07 2.51.257 3.308a9.732 9.732 0 0 0 1.864 3.802c.197-1.032.298-2.08.301-3.132.006-2.986-.795-4.785-1.14-5.422-.796-1.462-1.129-1.49-1.135-1.49Z" fill="#000"/><path d="M142.555 94.976c.464-.325 1.644-1.047 3.03-.784.645.123 1.418.474 1.385.716-.043.326-1.506.41-2.374.377a8.874 8.874 0 0 1-2.041-.31Z" fill="#fff"/><path d="M145.035 95.519c-.168 0-.321 0-.447-.007a9.11 9.11 0 0 1-2.093-.319.23.23 0 0 1-.164-.18.224.224 0 0 1 .094-.223c.601-.42 1.817-1.084 3.202-.818.429.082 1.637.435 1.567.97-.065.492-1.308.577-2.159.577Zm-1.904-.637c.485.102.978.16 1.473.177.947.032 1.83-.07 2.096-.187-.154-.13-.614-.354-1.157-.458-.946-.18-1.815.139-2.412.468Z" fill="#000"/><path d="M142.47 94.662c-.305.348-.63.678-.973.99-.453.416-.941.792-1.458 1.125-1.023.637-2.689 1.263-2.953.885-.252-.364.71-1.755 1.991-2.33.423-.19.842-.274 1.572-.42.601-.12 1.209-.203 1.821-.25Z" fill="#fff"/><path d="M137.43 97.998c-.238 0-.424-.06-.525-.204-.09-.13-.102-.301-.047-.512.183-.66 1.082-1.683 2.131-2.148.445-.205.886-.289 1.618-.435a15.797 15.797 0 0 1 1.849-.256.227.227 0 0 1 .242.254.226.226 0 0 1-.055.12c-.31.355-.641.692-.991 1.008-.461.428-.96.813-1.489 1.152-.553.336-1.93 1.021-2.733 1.021Zm4.476-3.054c-.409.048-.809.112-1.208.192-.727.145-1.126.225-1.524.409-1.22.548-1.984 1.767-1.896 2 .187.133 1.506-.247 2.646-.954a10.04 10.04 0 0 0 1.42-1.107 9.77 9.77 0 0 0 .562-.54Z" fill="#000"/><path d="M140.147 105.521h-.025a.224.224 0 0 1-.152-.084.227.227 0 0 1-.04-.079.217.217 0 0 1-.008-.088 61.912 61.912 0 0 1 2.124-10.262.24.24 0 0 1 .042-.08.222.222 0 0 1 .155-.083.224.224 0 0 1 .223.124.224.224 0 0 1 .011.176 61.479 61.479 0 0 0-2.105 10.18.23.23 0 0 1-.225.196ZM147.321 97.864a5.237 5.237 0 0 0 1.075-2.528c.296-2.388-1.274-4.604-1.679-4.481-.295.088-.137 1.457.153 3.98a46.81 46.81 0 0 0 .451 3.029Z" fill="#fff"/><path d="M147.321 98.09a.227.227 0 0 1-.222-.185 46.631 46.631 0 0 1-.453-3.045c-.381-3.301-.453-4.085.006-4.222.148-.044.307.012.498.171.622.527 1.729 2.465 1.469 4.556a5.4 5.4 0 0 1-1.118 2.637.227.227 0 0 1-.18.088Zm-.511-6.98c-.092.402.085 1.944.287 3.698.096.83.215 1.662.354 2.48a4.795 4.795 0 0 0 .716-1.98c.261-2.075-.949-3.919-1.359-4.198h.002Z" fill="#000"/><path d="M147.527 98.04a14.6 14.6 0 0 1 1.96-2.422c1.985-1.973 3.667-2.494 4.039-2.602.274-.08 1.612-.469 1.803-.117.165.307-.59 1.023-1.721 2.079-1.049.981-1.573 1.472-2.184 1.848-.679.417-1.975 1.07-3.897 1.214ZM149.474 95.417c.316-.364 1.031-1.298.931-2.493-.046-.557-.275-1.241-.483-1.236-.279.008-.476 1.238-.529 1.974a7.524 7.524 0 0 0 .081 1.755Z" fill="#fff"/><path d="M149.475 95.643a.23.23 0 0 1-.169-.075.23.23 0 0 1-.054-.114 7.698 7.698 0 0 1-.084-1.807c.057-.81.231-2.17.748-2.185h.009c.478 0 .674 1.067.706 1.442.102 1.209-.574 2.186-.986 2.66a.226.226 0 0 1-.17.08Zm.457-3.652c-.117.26-.261.951-.313 1.688a7.38 7.38 0 0 0 .01 1.161c.307-.467.614-1.135.552-1.898a2.736 2.736 0 0 0-.249-.951ZM142.359 105.963a.222.222 0 0 1-.203-.129.227.227 0 0 1 .027-.239 52.289 52.289 0 0 0 4.886-7.358.224.224 0 0 1 .303-.091.224.224 0 0 1 .11.131.23.23 0 0 1-.013.171 52.681 52.681 0 0 1-4.933 7.43.238.238 0 0 1-.078.063.242.242 0 0 1-.099.022Z" fill="#000"/><path d="M131.497 97.96c6.576.705 13.3.539 20.237-.97a.528.528 0 0 1 .601.716l-8.096 19.59 1.997 4.589-5.535.87.185-5.371-10.002-18.518a.616.616 0 0 1 .288-.85.62.62 0 0 1 .325-.057Z" fill="#fff"/><path d="M140.701 122.985a.225.225 0 0 1-.226-.234l.183-5.31-9.973-18.458a.847.847 0 0 1 .836-1.248c7.081.76 13.677.445 20.165-.965a.756.756 0 0 1 .858 1.029l-8.06 19.497 1.958 4.501a.229.229 0 0 1-.008.2.228.228 0 0 1-.164.114l-5.534.869a.14.14 0 0 1-.035.005Zm-9.272-24.805a.399.399 0 0 0-.339.194.392.392 0 0 0-.007.39l10.002 18.519a.22.22 0 0 1 .027.115l-.177 5.095 4.975-.782-1.88-4.321a.225.225 0 0 1 0-.177l8.097-19.59a.307.307 0 0 0-.048-.307.3.3 0 0 0-.297-.102c-6.536 1.42-13.179 1.739-20.309.973l-.044-.007Z" fill="#000"/><path d="M142.194 95.158a.992.992 0 0 1-.83-1.137.994.994 0 0 1 1.137-.83l-.307 1.967ZM147.753 107.135l-.52 2.178-1.87-.623a14.623 14.623 0 0 1-2.95-1.365l-1.072-.651a1.472 1.472 0 0 0-2.154.779c-.661 1.877-.531 5.023 6.206 7 3.719 1.09 4.784-3.674 4.303-6.32a2.222 2.222 0 0 0-.796-1.382.724.724 0 0 0-.679-.124.712.712 0 0 0-.468.508Z" fill="#fff"/><path d="M146.424 114.841a3.935 3.935 0 0 1-1.094-.166c-3.25-.954-5.332-2.286-6.189-3.957-.52-1.016-.577-2.169-.166-3.336a1.694 1.694 0 0 1 1.772-1.132c.251.025.494.105.711.236l1.073.651a14.326 14.326 0 0 0 2.904 1.343l1.637.545.462-1.938a.933.933 0 0 1 .224-.41.945.945 0 0 1 1.283-.095c.47.38.783.921.878 1.518.354 1.95-.123 4.726-1.535 5.997a2.86 2.86 0 0 1-1.96.744Zm-5.843-8.148a1.248 1.248 0 0 0-1.179.84c-.375 1.062-.327 2.063.142 2.978.798 1.558 2.788 2.812 5.913 3.729 1.045.307 1.928.144 2.624-.483 1.295-1.165 1.725-3.752 1.393-5.579a2.012 2.012 0 0 0-.716-1.246.498.498 0 0 0-.669.049.486.486 0 0 0-.117.213l-.52 2.176a.227.227 0 0 1-.291.162l-1.871-.623a14.763 14.763 0 0 1-2.994-1.386l-1.073-.65a1.244 1.244 0 0 0-.642-.185v.005Z" fill="#000"/><path d="m126.678 73.303.475 6.608a2.112 2.112 0 0 0 1.562 1.78l2.322.615-1.506 1.147a9.345 9.345 0 0 1-11.307.01l-2.384-1.809 2.884-.644a2.108 2.108 0 0 0 1.615-1.684l1.274-8.744 5.065 2.72Z" fill="#fff"/><path d="M123.87 85.58a9.561 9.561 0 0 1-5.784-1.944l-2.382-1.808a.225.225 0 0 1-.085-.229.226.226 0 0 1 .06-.111.228.228 0 0 1 .112-.06l2.884-.645a1.876 1.876 0 0 0 1.442-1.504l1.277-8.739a.225.225 0 0 1 .326-.168l5.065 2.726a.223.223 0 0 1 .118.183l.475 6.608a1.874 1.874 0 0 0 1.394 1.583l2.322.606a.224.224 0 0 1 .165.174.224.224 0 0 1-.085.224l-1.506 1.147a9.559 9.559 0 0 1-5.798 1.957Zm-7.505-3.816 1.995 1.513a9.142 9.142 0 0 0 11.034-.01l1.136-.865-1.872-.488a2.323 2.323 0 0 1-1.729-1.978l-.468-6.494-4.67-2.513-1.228 8.424a2.331 2.331 0 0 1-1.79 1.874l-2.408.537Z" fill="#000"/><path d="M134.182 64.104c-1.588-.84-.306 1.777-5.534-2.745-2.081-1.8-2.156 1.561-2.697 1.095-1.998-1.72-1.928-1.664-3.189-1.882-.835-.145-1.951 1.006-2.283 2.097-.438 1.438.518 2.3.192 5.614-.23 2.327-.962 3.47-.291 4.132.671.662 1.782-.15 2.577.525 1.03.872-.145 2.813.614 4.19.479.867 2.053 1.888 5.367 1.808a1.127 1.127 0 0 0 1.078-.94c.113-.68.25-1.542.307-2.376.297-3.974-.558-5.293.284-5.973 1.291-1.04 3.483.898 4.415-.016.979-.948 1.34-4.378-.84-5.529Z" fill="#000"/><path d="m126.283 66.331.066 1.086c.032.511.028 1.024-.012 1.535-.075.958-.19 2.607-.184 3.535.008 1.364 4.223 1.63 4.223 1.63l.534-.594.495.02a.53.53 0 0 0 .51-.29c.051-.1.069-.215.051-.326-.205-1.204-.549-3.863-.163-5.934a5.768 5.768 0 0 0-5.52-.662Z" fill="#fff"/><path d="M130.376 74.343h-.015c-.453-.029-4.424-.323-4.435-1.854 0-.945.114-2.632.184-3.555.04-.5.044-1.002.014-1.503l-.067-1.085a.226.226 0 0 1 .144-.225c3.262-1.271 5.645.62 5.744.7a.224.224 0 0 1 .08.218c-.386 2.064-.014 4.78.164 5.851a.758.758 0 0 1-.793.88l-.389-.017-.464.511a.225.225 0 0 1-.167.079Zm-3.857-7.858.056.92c.032.522.027 1.045-.013 1.566-.071.92-.189 2.59-.184 3.517 0 .847 2.558 1.299 3.903 1.398l.461-.512a.226.226 0 0 1 .178-.075l.494.021a.338.338 0 0 0 .165-.03.305.305 0 0 0 .164-.322c-.221-1.331-.532-3.835-.188-5.868a5.602 5.602 0 0 0-5.036-.615Z" fill="#000"/><path d="M125.543 69.677s-.159-2.61-1.325-2.28c-1.167.33-.927 3.198 1.325 2.28ZM113.514 162.522a4.131 4.131 0 1 0 0-8.262 4.131 4.131 0 0 0 0 8.262Z" fill="#fff"/><path d="M113.516 162.748a4.365 4.365 0 0 1-2.421-.734 4.363 4.363 0 0 1-1.853-4.473 4.363 4.363 0 0 1 3.424-3.424 4.355 4.355 0 0 1 3.929 7.353 4.362 4.362 0 0 1-3.079 1.278Zm0-8.262a3.91 3.91 0 0 0-3.608 2.41 3.91 3.91 0 0 0 .847 4.256 3.909 3.909 0 0 0 4.255.847 3.909 3.909 0 0 0 2.411-3.608 3.908 3.908 0 0 0-3.905-3.905Z" fill="#000"/><path d="M125.165 162.522a4.131 4.131 0 1 0 .002-8.262 4.131 4.131 0 0 0-.002 8.262Z" fill="#fff"/><path d="M125.165 162.748a4.361 4.361 0 0 1-4.025-2.69 4.355 4.355 0 0 1 3.175-5.941 4.357 4.357 0 1 1 .85 8.631Zm0-8.262a3.908 3.908 0 0 0-3.61 2.408 3.91 3.91 0 0 0 .845 4.257 3.91 3.91 0 0 0 1.999 1.07 3.907 3.907 0 0 0 4.668-3.83 3.91 3.91 0 0 0-3.902-3.905Z" fill="#000"/><path d="M141.048 158.908a4.131 4.131 0 1 0-8.041-1.898 4.131 4.131 0 0 0 8.041 1.898Z" fill="#fff"/><path d="M137.03 162.325a4.362 4.362 0 0 1-4.276-5.209 4.359 4.359 0 0 1 8.633.851 4.36 4.36 0 0 1-4.357 4.358Zm0-8.264a3.91 3.91 0 0 0-3.61 2.411 3.901 3.901 0 0 0-.222 2.257 3.9 3.9 0 0 0 3.068 3.069 3.908 3.908 0 0 0 4.669-3.831 3.91 3.91 0 0 0-3.905-3.906Z" fill="#000"/><path d="M142.879 202.294s4.204-1.314 11.091-14.677c5.813-11.279.63-22.18-.415-29.472a.717.717 0 0 0-1.377-.143c-1.74 4.899-4.547 13.812-4.093 19.293.657 7.904-5.206 24.999-5.206 24.999Z" fill="#fff"/><path d="M142.879 202.519a.218.218 0 0 1-.103-.025.221.221 0 0 1-.111-.274c.059-.171 5.832-17.142 5.194-24.908-.457-5.538 2.376-14.528 4.106-19.386a.94.94 0 0 1 1.538-.363.936.936 0 0 1 .276.55c.235 1.643.689 3.498 1.169 5.46 1.673 6.839 3.756 15.352-.777 24.145-6.855 13.294-11.049 14.732-11.224 14.789a.262.262 0 0 1-.068.012Zm9.965-44.768a.463.463 0 0 0-.452.326c-1.718 4.829-4.533 13.744-4.081 19.198.585 7.081-4.071 21.628-5.042 24.568 1.258-.757 5.043-3.742 10.5-14.33 4.455-8.645 2.396-17.066.74-23.832-.483-1.974-.939-3.839-1.178-5.504a.476.476 0 0 0-.436-.424c-.016-.001-.031-.002-.047-.001l-.004-.001Z" fill="#000"/><path d="m147.441 194.988 1.497-11.841a26.999 26.999 0 0 0-2.421-15.026 27.017 27.017 0 0 1-.703-21.668l2.405-6.009c.307-.759-.664-1.376-1.212-.773l-3.376 3.716c-7.663 8.43-10.25 20.36-6.776 31.254l6.223 19.508 4.363.839Z" fill="#fff"/><path d="M147.441 195.215a.308.308 0 0 1-.043 0l-4.364-.839a.217.217 0 0 1-.107-.053.225.225 0 0 1-.066-.1l-6.223-19.513c-3.492-10.947-.877-23.003 6.823-31.475l3.376-3.716a.934.934 0 0 1 1.208-.167.94.94 0 0 1 .382 1.176l-2.405 6.01a26.834 26.834 0 0 0 .696 21.485 27.155 27.155 0 0 1 2.442 15.152l-1.497 11.841a.23.23 0 0 1-.224.198l.002.001Zm-4.19-1.262 3.99.768 1.469-11.601a26.712 26.712 0 0 0-2.401-14.901 27.294 27.294 0 0 1-.708-21.85l2.405-6.009a.496.496 0 0 0-.204-.625.484.484 0 0 0-.633.088l-3.377 3.717c-7.592 8.352-10.17 20.244-6.727 31.033l6.186 19.38Z" fill="#000"/><path d="m145.509 195.377-5.194-13.269a13.177 13.177 0 0 0-8.439-7.826l-3.542-1.073c-.86-.26-1.433.876-.726 1.433l2.175 1.691a9.958 9.958 0 0 1 3.829 7.655 9.982 9.982 0 0 0 1.457 4.994l3.519 5.774 6.921.621Z" fill="#fff"/><path d="M145.509 195.603h-.019l-6.92-.621a.221.221 0 0 1-.173-.103l-3.52-5.773a10.226 10.226 0 0 1-1.489-5.107 9.685 9.685 0 0 0-3.742-7.481l-2.177-1.693a1.022 1.022 0 0 1-.285-1.308 1.006 1.006 0 0 1 1.216-.511l3.542 1.073a13.326 13.326 0 0 1 8.584 7.957l5.194 13.269c.013.034.017.071.013.107a.243.243 0 0 1-.038.101.233.233 0 0 1-.186.099v-.009Zm-6.785-1.064 6.446.578-5.066-12.927a12.877 12.877 0 0 0-8.293-7.69l-3.543-1.073a.563.563 0 0 0-.682.292.578.578 0 0 0 .161.743l2.178 1.693a10.135 10.135 0 0 1 3.915 7.828 9.777 9.777 0 0 0 1.424 4.882l3.46 5.674ZM144.741 189.368h-.021a.227.227 0 0 1-.195-.158c-.009-.028-.012-.058-.009-.088.791-8.467-.91-13.914-2.411-18.728-.693-2.226-1.349-4.328-1.739-6.589-1.841-10.677 4.432-19.941 4.502-20.033a.22.22 0 0 1 .144-.087.222.222 0 0 1 .164.036.226.226 0 0 1 .064.307c-.063.091-6.23 9.207-4.423 19.7.384 2.232 1.036 4.32 1.725 6.531 1.513 4.85 3.229 10.348 2.429 18.905a.226.226 0 0 1-.23.204ZM151.66 183.703h-.038a.235.235 0 0 1-.147-.092.237.237 0 0 1-.036-.081.237.237 0 0 1-.002-.088c1.415-8.365.921-21.242.921-21.372a.214.214 0 0 1 .059-.162.218.218 0 0 1 .072-.052.23.23 0 0 1 .321.196c0 .129.496 13.055-.921 21.466a.228.228 0 0 1-.229.185Z" fill="#000"/><path d="M139.256 190.635a.227.227 0 0 1-.159-.065.23.23 0 0 1-.067-.159c-.102-10.402-8.406-14.967-8.491-15.012a.221.221 0 0 1-.11-.134.217.217 0 0 1 .017-.172.233.233 0 0 1 .055-.069.234.234 0 0 1 .166-.05c.03.003.058.012.084.026.087.046 8.628 4.74 8.73 15.407a.217.217 0 0 1-.016.087.235.235 0 0 1-.048.074.219.219 0 0 1-.159.067h-.002ZM140.385 171.131a.23.23 0 0 1-.179-.087c-2.258-2.901-3.26-6.822-3.274-6.862a.226.226 0 0 1 .439-.11c.009.039.989 3.869 3.187 6.694a.236.236 0 0 1 .047.167.252.252 0 0 1-.028.084.244.244 0 0 1-.058.066.222.222 0 0 1-.134.048ZM144.28 210.793a9.843 9.843 0 0 1-9.842-9.841v-8.783h19.683v8.783a9.841 9.841 0 0 1-9.841 9.841Z" fill="#000"/><path d="M152.189 195.682h-15.821a.229.229 0 0 1-.16-.066.229.229 0 0 1 0-.32.229.229 0 0 1 .16-.066h15.821a.227.227 0 0 1 .226.226.227.227 0 0 1-.226.226Z" fill="#fff"/><path d="m236.459 213.106-3.541.257-65.662-.257c-2.982 0-5.095-2.405-4.718-5.371l17.039-134.302c.377-2.967 3.099-5.37 6.081-5.37l65.729-.766c7.545 0 8.569 3.172 8.192 6.14L242.54 207.735c-.377 2.967-3.099 5.37-6.081 5.37Z" fill="#000"/><path d="M232.297 213.104h-69.205c-2.982 0-5.095-2.416-4.718-5.399l17.039-135.043c.377-2.982 3.099-5.4 6.081-5.4h69.203c2.982 0 5.095 2.418 4.718 5.4l-17.04 135.047c-.376 2.979-3.098 5.395-6.078 5.395Z" fill="#fff"/><path d="m162.318 207.892 16.267-128.944a1.46 1.46 0 0 1 1.406-1.246h69.57a1.08 1.08 0 0 1 1.062.78c.043.152.053.311.028.467l-16.267 128.944a1.458 1.458 0 0 1-1.404 1.246h-69.57a1.074 1.074 0 0 1-1.092-1.247Z" fill="#fff"/><path d="M232.981 209.364h-69.57a1.31 1.31 0 0 1-1.001-.438 1.327 1.327 0 0 1-.307-1.063L178.37 78.92a1.69 1.69 0 0 1 1.628-1.445h69.575a1.316 1.316 0 0 1 1.002.438 1.322 1.322 0 0 1 .307 1.063l-16.267 128.943a1.69 1.69 0 0 1-1.634 1.445Zm-70.439-1.445a.884.884 0 0 0 .204.707.857.857 0 0 0 .301.215c.114.05.238.074.362.071h69.575a1.226 1.226 0 0 0 1.18-1.049L250.431 78.92a.884.884 0 0 0-.205-.707.865.865 0 0 0-.663-.286h-69.569a1.225 1.225 0 0 0-1.179 1.049l-16.273 128.943Z" fill="#000"/><path d="M216.789 73.506c.868-.814.989-2.094.272-2.859-.718-.764-2.003-.724-2.871.09-.868.815-.989 2.095-.271 2.86.718.764 2.003.724 2.87-.09Z" fill="#fff"/><path d="M215.228 74.357a1.99 1.99 0 0 1-1.52-.663 2.01 2.01 0 0 1-.472-1.618c.155-1.228 1.278-2.22 2.503-2.22a1.986 1.986 0 0 1 1.52.662 2.027 2.027 0 0 1 .471 1.615c-.154 1.229-1.276 2.224-2.502 2.224Zm.512-4.045c-1.005 0-1.927.818-2.054 1.825a1.584 1.584 0 0 0 .362 1.258 1.55 1.55 0 0 0 1.181.512c1.006 0 1.927-.819 2.054-1.825a1.566 1.566 0 0 0-.362-1.257 1.54 1.54 0 0 0-1.182-.513h.001ZM232.297 213.331h-69.205c-1.501 0-2.841-.584-3.775-1.637-.934-1.054-1.359-2.497-1.168-4.012l7.847-64.135a.226.226 0 0 1 .403-.112.234.234 0 0 1 .046.167l-7.847 64.134c-.175 1.386.204 2.684 1.058 3.656.853.972 2.067 1.489 3.436 1.489h69.205c2.864 0 5.494-2.332 5.856-5.201l17.04-135.047c.174-1.385-.204-2.683-1.059-3.656-.854-.973-2.066-1.49-3.435-1.49h-21.052a.226.226 0 1 1 0-.451h21.05c1.5 0 2.84.583 3.775 1.643s1.356 2.496 1.167 4.01L238.6 207.736c-.39 3.084-3.219 5.595-6.303 5.595Z" fill="#000"/><path d="M206.631 170.914c16.077 0 29.11-13.033 29.11-29.11 0-16.077-13.033-29.11-29.11-29.11-16.077 0-29.11 13.033-29.11 29.11 0 16.077 13.033 29.11 29.11 29.11Z" fill="#fff"/><path d="M206.631 171.14c-16.176 0-29.336-13.16-29.336-29.336s13.16-29.336 29.336-29.336 29.336 13.16 29.336 29.336-13.16 29.336-29.336 29.336Zm0-58.22c-15.926 0-28.883 12.957-28.883 28.884 0 15.926 12.957 28.883 28.883 28.883 15.927 0 28.883-12.957 28.883-28.883 0-15.927-12.956-28.884-28.883-28.884Z" fill="#000"/><path d="M208.248 135.392c.614 1.246 2.149 4.354 5.236 5.386 4.269 1.425 6.453-3.772 12.073-2.996 14.261 1.966 18.158-12.746 17.363-14.167-1.703-3.043 1.165-5.306.103-8.971-1.008-3.485-4.85-5.77-7.43-6.603-3.031-.979-4.174.091-6.073-1.246-.674-.476-1.747-1.469-3.205-6.92-1.842-6.905-.793-7.804-2.373-9.439-2.22-2.298-4.657-.894-7.862-4.036-.955-.937-1.476-1.785-2.603-1.932-1.582-.205-3.558 1.072-3.926 2.617-.498 2.095 2.241 3.516 3.708 6.107 2.123 3.748.343 7.75-1.854 14.834-4.072 13.157-6.363 20.866-3.157 27.366Z" fill="#000"/><path d="m191.453 166.142 2.736-39.831 17.447 4.416 11.746 34.865c-11.635 8.31-23.386 6.303-31.929.55Z" fill="#fff"/><path d="M207.017 171.378c-5.344 0-10.69-1.68-15.691-5.047a.236.236 0 0 1-.078-.088.235.235 0 0 1-.024-.117l2.739-39.827a.226.226 0 0 1 .093-.169.235.235 0 0 1 .09-.039.232.232 0 0 1 .098.003l17.447 4.417a.224.224 0 0 1 .158.146l11.752 34.863a.23.23 0 0 1 .001.142.235.235 0 0 1-.084.115c-5.23 3.732-10.864 5.601-16.501 5.601Zm-15.329-5.35c10.038 6.704 21.476 6.512 31.426-.523l-11.653-34.588-17.065-4.32-2.708 39.431Z" fill="#000"/><path d="M194.734 165.224h-.015a.228.228 0 0 1-.155-.076.228.228 0 0 1-.056-.164l1.622-26.795a.228.228 0 0 1 .239-.206.227.227 0 0 1 .212.233l-1.622 26.795a.226.226 0 0 1-.225.213ZM196.521 135.692h-.013a.232.232 0 0 1-.201-.151.264.264 0 0 1-.012-.088l.176-2.902a.232.232 0 0 1 .077-.155.227.227 0 0 1 .318.018.24.24 0 0 1 .045.077.234.234 0 0 1 .011.087l-.174 2.903a.227.227 0 0 1-.227.211ZM198.55 165.224a.23.23 0 0 1-.159-.069.244.244 0 0 1-.063-.161l.043-2.483a.228.228 0 0 1 .069-.159.22.22 0 0 1 .161-.063.224.224 0 0 1 .222.23l-.043 2.483a.215.215 0 0 1-.069.158.215.215 0 0 1-.074.048.235.235 0 0 1-.087.016ZM198.623 160.972a.234.234 0 0 1-.158-.069.229.229 0 0 1-.064-.161l.472-27.129a.225.225 0 0 1 .23-.222c.06.001.117.026.159.069a.228.228 0 0 1 .063.161l-.471 27.129a.23.23 0 0 1-.069.159.232.232 0 0 1-.162.063ZM208.909 165.224a.226.226 0 0 1-.224-.199l-3.771-30.945a.23.23 0 0 1 .046-.167.227.227 0 0 1 .403.113l3.771 30.945c.004.03.001.06-.007.088a.211.211 0 0 1-.04.079.217.217 0 0 1-.067.057.22.22 0 0 1-.083.028l-.028.001ZM213 164.897a.225.225 0 0 1-.222-.183l-2.947-15.364a.227.227 0 0 1 .18-.259.228.228 0 0 1 .264.174l2.947 15.364a.225.225 0 0 1-.222.268Z" fill="#000"/><path d="M213.736 97.322a4.12 4.12 0 0 1-2.762.316l2.762-.316Z" fill="#fff"/><path d="M211.91 97.974c-.332 0-.662-.039-.984-.116a.229.229 0 0 1-.182-.182.232.232 0 0 1 .041-.174.228.228 0 0 1 .153-.09.229.229 0 0 1 .091.006c.873.204 1.789.1 2.594-.293a.227.227 0 0 1 .329.258.223.223 0 0 1-.107.137c-.6.302-1.263.458-1.935.454Z" fill="#000"/><path d="M224.873 109.508c-1.451-1.312-3.09-2.369-4.74-3.245-2.229-1.185-4.479-2.038-6.315-2.732a45.836 45.836 0 0 0-9.106-2.436c-3.807-.572-7.54-.588-9.875-.598-3.847-.015-7.264.081-9.963-2.209a3.368 3.368 0 0 1-.419-.428c-2.904-3.507.233-10.347.877-11.7l-3.826-.741c-6.312 6.855-6.609 16.665-1.652 22.466 4.591 5.374 11.82 5.115 15.205 4.632V112.929a68.557 68.557 0 0 1-1.48 8.042c-.857 3.463-1.612 5.32-.654 6.433.699.819 1.655.478 4.034.655 4.468.333 9.617 2.161 12.648 3.984.324.195.885.296 1.544.622 2.194 1.086 4.828-.211 5.376-2.598l2.541-11.062.226-.981c.706.929 5.224 7.082 3.493 15.109-1.258 5.831-5.08 9.238-6.357 10.284l3.289 3.664c2.384-1.243 8.313-4.776 11.133-11.853 3.808-9.57.043-20.273-5.979-25.72Z" fill="#fff"/><path d="M219.713 147.308a.224.224 0 0 1-.168-.076l-3.29-3.665a.227.227 0 0 1-.058-.167.224.224 0 0 1 .083-.158c1.855-1.518 5.137-4.855 6.28-10.156 1.506-6.985-1.724-12.504-3.162-14.528l-2.66 11.561a4.063 4.063 0 0 1-2.23 2.772 3.948 3.948 0 0 1-3.468-.023 7.199 7.199 0 0 0-.905-.361 3.594 3.594 0 0 1-.655-.269c-2.762-1.66-7.866-3.605-12.547-3.953a26.762 26.762 0 0 0-1.784-.065c-1.155-.012-1.851-.02-2.406-.668-.867-1.013-.475-2.498.174-4.959.135-.511.283-1.069.433-1.676a68.688 68.688 0 0 0 1.472-8.001v-.138c-3.844.511-10.673.49-15.142-4.745-5.21-6.099-4.482-16.1 1.659-22.767a.227.227 0 0 1 .205-.069l3.826.741a.222.222 0 0 1 .158.12.215.215 0 0 1 0 .2c-.89 1.87-3.588 8.22-.906 11.458.118.145.248.279.391.4 2.521 2.135 5.666 2.148 9.31 2.154h.511c2.278.011 6.086.026 9.909.601a46.392 46.392 0 0 1 9.153 2.447c1.821.69 4.092 1.547 6.343 2.744 1.893 1.007 3.458 2.079 4.785 3.274 3.09 2.796 5.548 6.957 6.742 11.423 1.336 4.998 1.09 10.026-.71 14.547-2.675 6.714-8.185 10.382-11.239 11.97a.222.222 0 0 1-.104.032Zm-2.967-3.867 3.015 3.358c3.022-1.602 8.296-5.19 10.871-11.655 3.828-9.605-.191-20.29-5.915-25.467-1.299-1.175-2.833-2.226-4.693-3.214-2.229-1.184-4.481-2.036-6.291-2.721a45.867 45.867 0 0 0-9.06-2.423c-3.785-.57-7.578-.585-9.841-.595h-.511c-3.73-.012-6.957-.02-9.6-2.261a3.572 3.572 0 0 1-.447-.458c-2.68-3.236-.491-9.055.723-11.677l-3.416-.661c-5.91 6.5-6.603 16.173-1.562 22.073 4.436 5.192 11.303 5.083 15.002 4.556a.223.223 0 0 1 .257.229v.403a.15.15 0 0 1 0 .03 69.053 69.053 0 0 1-1.484 8.069c-.151.614-.299 1.168-.435 1.682-.614 2.318-.981 3.718-.267 4.549.421.493.971.499 2.067.512.485.005 1.087.012 1.813.065 4.755.354 9.94 2.331 12.746 4.017.182.094.372.171.568.229.328.107.649.235.96.384a3.493 3.493 0 0 0 3.069.018 3.6 3.6 0 0 0 1.982-2.463l2.762-12.045a.228.228 0 0 1 .299-.161.225.225 0 0 1 .102.075c1.248 1.637 5.193 7.598 3.534 15.294-1.126 5.264-4.319 8.638-6.248 10.258Z" fill="#000"/><path d="m219.071 146.658-3.316 1.294s-2.052.623-3.307-1.032c-1.256-1.654-4.582-2.285-4.582-2.285s2.263-1.713 3.163-1.987c.899-.274 4.153 1.775 4.153 1.775l1.49-.726 2.399 2.961Z" fill="#fff"/><path d="M214.851 148.282c-.764 0-1.816-.218-2.584-1.228-1.189-1.567-4.411-2.192-4.443-2.199a.23.23 0 0 1-.115-.058.237.237 0 0 1-.063-.112.227.227 0 0 1 .084-.233c.093-.07 2.305-1.739 3.233-2.022.902-.275 3.488 1.27 4.232 1.733l1.378-.671a.223.223 0 0 1 .274.06l2.399 2.967a.226.226 0 0 1 .043.2.228.228 0 0 1-.136.153l-3.315 1.293a3.777 3.777 0 0 1-.987.117Zm-6.453-3.763c.994.247 3.22.929 4.23 2.26 1.142 1.506 2.984.975 3.062.951l3.01-1.174-2.091-2.581-1.33.647a.224.224 0 0 1-.22-.012c-1.227-.77-3.385-1.926-3.967-1.75-.628.192-2.013 1.163-2.694 1.659Z" fill="#000"/><path d="M212.827 145.814a.218.218 0 0 1-.111-.03l-2.197-1.247-2.433.318a.223.223 0 0 1-.167-.045.224.224 0 0 1-.041-.317.224.224 0 0 1 .15-.087l2.508-.326a.223.223 0 0 1 .141.027l2.263 1.285a.222.222 0 0 1 .096.109.224.224 0 0 1-.071.266.222.222 0 0 1-.138.047Z" fill="#000"/><path d="M213.155 144.857a.225.225 0 0 1-.108-.027l-2.198-1.189-1.512.188a.226.226 0 0 1-.055-.448l1.582-.197a.23.23 0 0 1 .136.025l2.262 1.228a.226.226 0 0 1-.102.425l-.005-.005Z" fill="#000"/><path d="m184.921 86.073 1.22-2.243c.724-1.33.102-3.041-1.341-3.515-.05-.016-.103-.03-.153-.045-1.881-.512-3.603-3.172-3.603-3.172s-.69 2.571-.614 3.45c.076.877 3.01 2.981 3.01 2.981l-1.499 2.034 2.98.51Z" fill="#fff"/><path d="M184.922 86.296a.24.24 0 0 1-.038 0l-2.976-.512a.222.222 0 0 1-.172-.138.226.226 0 0 1 .027-.219l1.364-1.85c-.758-.558-2.84-2.162-2.918-3.01-.083-.909.589-3.422.614-3.529a.229.229 0 0 1 .311-.148c.04.018.074.047.098.084.017.026 1.698 2.6 3.472 3.077a2.603 2.603 0 0 1 1.771 1.572 2.727 2.727 0 0 1-.135 2.32l-1.219 2.243a.229.229 0 0 1-.199.11Zm-2.578-.9 2.456.423 1.141-2.101a2.284 2.284 0 0 0 .112-1.923 2.148 2.148 0 0 0-1.33-1.261c-.046-.014-.092-.029-.141-.042-1.502-.41-2.865-2.07-3.447-2.856-.191.775-.536 2.287-.481 2.893.048.535 1.74 1.97 2.916 2.819a.226.226 0 0 1 .091.149.222.222 0 0 1-.041.169l-1.276 1.73Z" fill="#000"/><path d="M183.627 81.295c-.05 0-.1-.017-.14-.049l-1.914-1.512a.218.218 0 0 1-.079-.12l-.601-2.293a.227.227 0 0 1 .162-.269.226.226 0 0 1 .275.153l.583 2.221 1.856 1.465a.23.23 0 0 1 .083.115.227.227 0 0 1-.225.294v-.005Z" fill="#000"/><path d="M182.911 81.917a.224.224 0 0 1-.143-.052l-1.861-1.535a.223.223 0 0 1-.075-.117l-.388-1.443a.229.229 0 0 1 .16-.277.227.227 0 0 1 .277.16l.368 1.373 1.806 1.488a.228.228 0 0 1-.013.36.228.228 0 0 1-.131.04v.003Z" fill="#000"/><path d="M209.116 102.058c2.167-2.16 1.75-4.438 1.75-4.438a6.102 6.102 0 0 1-1.841-.499.697.697 0 0 1-.37-.849c.313-.959.637-2.532.806-2.865-.193-.394-.742-.499-.58-1.184 1.266-.384 2.003-2.474 2.775-3.16.38-.337.644-.43 1.108-.782 2.424.078-.832 3.308 2.589 4.399-.118.216-.059.657.029 1.044.051.244.119.483.205.717.425-.778 1.063-1.126 1.427-.968.364.157.438.835.365 1.254-.195 1.14-1.606 1.614-1.714 1.648 0 0-.347 5.448.289 7.65 2.685 1.135 4.164 2.186 4.164 2.186-13.975 1.788-16.607-4.931-16.607-4.931 1.69.07 4.137.525 5.605.778Z" fill="#fff"/><path d="M215.689 106.735c-4.61 0-7.509-1.081-9.234-2.126-2.443-1.479-3.129-3.172-3.157-3.247a.226.226 0 0 1 .22-.308c1.521.062 3.599.425 5.116.69l.409.071c1.645-1.696 1.661-3.46 1.623-3.99a6.32 6.32 0 0 1-1.74-.494.923.923 0 0 1-.49-1.125c.147-.448.297-1.042.431-1.567.147-.581.252-.982.337-1.21a1.556 1.556 0 0 0-.175-.186c-.215-.204-.512-.486-.372-1.07a.228.228 0 0 1 .155-.164c.723-.22 1.29-1.115 1.79-1.904.307-.482.594-.937.899-1.209.192-.167.397-.318.614-.45.153-.096.307-.195.504-.342a.214.214 0 0 1 .143-.046c.449.014.764.131.963.358.307.356.257.887.204 1.448-.102 1.013-.204 2.062 1.488 2.6a.22.22 0 0 1 .085.05c.025.023.044.05.056.081a.226.226 0 0 1-.011.193c-.026.046-.096.245.051.885.018.081.039.166.06.25.443-.56 1.016-.836 1.443-.654.517.221.582 1.023.499 1.5-.185 1.081-1.296 1.61-1.72 1.773-.048.869-.264 5.328.261 7.321 2.612 1.114 4.045 2.124 4.106 2.167a.227.227 0 0 1 .02.354.227.227 0 0 1-.123.055 35.11 35.11 0 0 1-4.455.296Zm-11.796-5.208c.756 1.284 4.266 5.803 15.575 4.534a27.032 27.032 0 0 0-3.604-1.829.212.212 0 0 1-.081-.058.219.219 0 0 1-.048-.087c-.64-2.214-.307-7.502-.298-7.726a.226.226 0 0 1 .158-.205c.056-.017 1.385-.452 1.559-1.47.07-.4-.015-.916-.23-1.008-.215-.092-.753.161-1.141.868a.224.224 0 0 1-.409-.023 5.348 5.348 0 0 1-.218-.756 2.68 2.68 0 0 1-.087-.951c-1.825-.676-1.69-2.017-1.59-3.005.048-.48.09-.896-.092-1.104-.102-.116-.285-.183-.559-.204-.18.132-.331.228-.467.314-.199.12-.387.256-.562.409-.258.23-.529.658-.818 1.112-.512.812-1.094 1.727-1.907 2.046-.026.245.089.354.264.52.129.112.238.245.32.395a.227.227 0 0 1 0 .204c-.078.153-.218.705-.354 1.238-.136.533-.289 1.134-.439 1.595a.47.47 0 0 0 .248.574 5.953 5.953 0 0 0 1.78.481.224.224 0 0 1 .195.184c.019.103.409 2.419-1.813 4.638a.224.224 0 0 1-.198.062l-.521-.091c-1.377-.235-3.219-.556-4.663-.657Z" fill="#000"/><path d="M214.709 96.52a4.355 4.355 0 0 1-3.843 1.1l3.843-1.1Z" fill="#fff"/><path d="M211.743 97.933a4.77 4.77 0 0 1-.921-.09.227.227 0 1 1 .088-.444 4.15 4.15 0 0 0 3.635-1.035.225.225 0 0 1 .302.006.223.223 0 0 1 .026.3 4.539 4.539 0 0 1-3.13 1.263ZM188.172 200.634h-.141c-2.375-.076-4.306-2.091-4.306-4.49a4.21 4.21 0 0 1 1.281-3.059 4.125 4.125 0 0 1 3.039-1.165c2.375.076 4.306 2.09 4.306 4.489a4.2 4.2 0 0 1-1.281 3.059 4.128 4.128 0 0 1-2.898 1.166Zm-.268-8.267a3.682 3.682 0 0 0-2.584 1.04 3.774 3.774 0 0 0-1.143 2.735c0 2.158 1.739 3.968 3.868 4.038a3.678 3.678 0 0 0 2.714-1.037 3.774 3.774 0 0 0 1.143-2.735c0-2.158-1.739-3.969-3.868-4.038l-.13-.003ZM199.7 201.008h-.141c-2.375-.077-4.306-2.09-4.306-4.49a4.2 4.2 0 0 1 2.681-3.954c.522-.2 1.08-.292 1.639-.271 2.375.077 4.306 2.091 4.306 4.49a4.227 4.227 0 0 1-1.281 3.059 4.134 4.134 0 0 1-2.898 1.166Zm-.268-8.268a3.68 3.68 0 0 0-2.584 1.041 3.77 3.77 0 0 0-1.143 2.734c0 2.158 1.739 3.969 3.868 4.038a3.666 3.666 0 0 0 2.71-1.039 3.755 3.755 0 0 0 1.144-2.734c0-2.157-1.739-3.969-3.868-4.038l-.127-.002ZM211.438 200.963h-.142c-2.374-.077-4.307-2.09-4.307-4.489a4.227 4.227 0 0 1 1.281-3.059 4.14 4.14 0 0 1 3.041-1.167c2.374.077 4.306 2.092 4.306 4.491a4.227 4.227 0 0 1-1.281 3.059 4.133 4.133 0 0 1-2.898 1.165Zm-.268-8.266a3.682 3.682 0 0 0-2.585 1.04 3.767 3.767 0 0 0-1.142 2.735c0 2.157 1.739 3.968 3.868 4.038.498.019.996-.063 1.462-.241a3.745 3.745 0 0 0 2.1-2.048c.197-.47.296-.975.292-1.484 0-2.158-1.739-3.969-3.869-4.038l-.126-.002Z" fill="#000"/><path d="M164.064 47.94c-.284-3.645 0-8.84 3.126-13.178 8.657-11.993 33.921-10.236 38.83-.447 2.493 4.968-.204 12.117-4.23 16.052-5.953 5.817-15.996 5.763-22.126 2.265-5.832-3.33-7.651-9.515-11.357-8.935-2.06.32-3.432 2.53-4.243 4.244Z" fill="#fff"/><path d="M189.344 55.268c-3.529 0-7.031-.864-9.793-2.44-2.697-1.535-4.501-3.629-6.097-5.474-1.8-2.082-3.22-3.728-5.116-3.433-1.522.235-2.893 1.62-4.075 4.117a.226.226 0 0 1-.43-.079c-.415-5.356.652-9.84 3.172-13.329 2.225-3.083 5.721-5.48 10.11-6.93 3.917-1.293 8.532-1.809 12.993-1.45 7.787.625 13.959 3.677 16.11 7.964 2.558 5.099-.166 12.298-4.275 16.314-2.785 2.723-6.742 4.388-11.14 4.69-.482.034-.971.05-1.459.05Zm-20.551-11.84c1.87 0 3.274 1.62 5.003 3.627 1.571 1.817 3.35 3.876 5.979 5.376 5.944 3.392 15.99 3.503 21.857-2.23 3.907-3.819 6.619-10.94 4.187-15.788-2.08-4.147-8.112-7.104-15.742-7.717-7.323-.588-17.66 1.205-22.704 8.194-2.323 3.22-3.376 7.321-3.137 12.202 1.168-2.17 2.523-3.388 4.037-3.622.172-.027.346-.04.52-.041Z" fill="#000"/><path d="M197.438 38.057h-21.274a.228.228 0 0 1-.151-.382.23.23 0 0 1 .151-.07h21.274a.228.228 0 0 1 .151.38.228.228 0 0 1-.151.072ZM191.782 41.792h-10.706a.226.226 0 1 1 0-.452h10.706a.226.226 0 1 1 0 .452Z" fill="#000"/><path d="M219.844 71.208c.541-.76 6.639-9.646 2.809-19.78-2.689-7.114-9.527-12.878-17.467-13.188-1.339-.053-9.787-.382-14.323 6.366-3.054 4.544-3.388 10.894-.421 15.513 3.528 5.49 10.263 6.272 11.262 6.373 6.996.704 10.852-3.785 14.667-1.617 2.338 1.326 3.144 4.283 3.473 6.333Z" fill="#fff"/><path d="M219.843 71.434a.294.294 0 0 1-.051-.005.232.232 0 0 1-.114-.067.24.24 0 0 1-.058-.119c-.499-3.114-1.629-5.19-3.357-6.172-1.882-1.068-3.78-.44-6.182.352-2.326.768-4.962 1.637-8.396 1.294-1.823-.184-8.036-1.193-11.43-6.476-2.926-4.555-2.752-11.036.422-15.761 4.155-6.185 11.535-6.582 14.518-6.466 7.673.3 14.768 5.658 17.67 13.334 3.839 10.16-2.143 19.014-2.837 19.99a.228.228 0 0 1-.185.096Zm-5.757-7.379c.84-.01 1.668.206 2.398.623 1.746.992 2.917 2.989 3.478 5.94 1.372-2.113 5.882-10.09 2.473-19.11-2.838-7.508-9.777-12.75-17.265-13.042-2.906-.114-10.096.27-14.124 6.266-3.078 4.58-3.249 10.857-.418 15.265 3.369 5.244 9.833 6.138 11.095 6.27 3.338.336 5.925-.52 8.209-1.274 1.494-.489 2.85-.938 4.154-.938Z" fill="#000"/><path d="M209.242 49.374a2.795 2.795 0 0 0-2.056-.966 2.623 2.623 0 0 0-1.652.52 3.37 3.37 0 0 0-.681.673 3.35 3.35 0 0 0-.642-.71 2.627 2.627 0 0 0-1.62-.613 2.801 2.801 0 0 0-2.108.85 3.26 3.26 0 0 0-.888 2.2c-.025.881.281 1.698.961 2.568.614.778 1.493 1.576 2.517 2.5.35.315.746.673 1.157 1.053a.616.616 0 0 0 .805.023c.432-.357.848-.693 1.215-.988 1.074-.865 2.001-1.613 2.653-2.353.728-.831 1.079-1.628 1.104-2.51a3.258 3.258 0 0 0-.765-2.247Z" fill="#000"/><path d="M109.35 68.314c4.112-4.112 4.112-10.78 0-14.892-4.112-4.113-10.78-4.113-14.892 0-4.113 4.112-4.113 10.78 0 14.892 4.112 4.113 10.78 4.113 14.892 0Z" fill="#fff"/><path d="M101.903 71.624a10.757 10.757 0 1 1 10.757-10.757 10.77 10.77 0 0 1-10.757 10.757Zm0-21.061a10.304 10.304 0 1 0 10.305 10.304 10.316 10.316 0 0 0-10.305-10.304Z" fill="#000"/><path d="M101.962 66.164a.339.339 0 0 1-.342.008c-.928-.519-5.234-3.112-5.065-6.506.178-3.586 4.069-2.967 5.03-1.199a.2.2 0 0 0 .288.067.197.197 0 0 0 .068-.085c.472-1.134 1.994-1.954 3.428-1.416 1.709.641 3.447 4.883-3.407 9.13ZM51.094 98.115c-2.57.731-3.737 3.323-4.565 5.628a36.749 36.749 0 0 0-1.368 4.843 7.689 7.689 0 0 0-1.737-2.398c-1.604-1.487-3.926-2.244-6.07-1.666-.925.251-2.14.88-2.372 1.907-.238 1.049.298 2.323.754 3.246 1.034 2.136 2.775 3.849 4.615 5.288 2.41 1.884 5.072 3.426 7.276 5.565a.294.294 0 0 0 .257.06l-.119.3c-.117.299.698-.038.745-.06.321-.15.796-.403.939-.759 2.233-5.529 4.532-11.299 4.474-17.365-.014-1.758-.161-5.347-2.829-4.589Zm-14.283 7.125c.03.027.009.051-.038.075.018-.049.032-.075.038-.075Zm-.167.475.068-.221c.15-.026.323-.071.459-.078.26-.016.522-.012.782.013-.17.129-.286.265-.286.387v3.377a9.507 9.507 0 0 1-.256-.491c-.408-.84-.935-2.03-.767-2.988v.001Zm2.449 5.52c-.031-.034-.06-.071-.09-.107.205-.15.349-.3.349-.432v-4.961c.44.148.863.342 1.263.578l.18 6.648a17.56 17.56 0 0 1-1.702-1.726Zm3.37 3.094a.299.299 0 0 0 .072-.184l-.173-6.337c1.145 1.349 1.787 3.086 2.018 4.85.016.196.035.391.06.587 0 .099.016.2.02.3 0 .021.009.04.022.056.106.741.264 1.473.472 2.192.07.243 1.812-.503 1.677-.974a15.623 15.623 0 0 1-.474-2.235c.19-2.474.627-4.922 1.301-7.309.01-.041.024-.081.036-.122l-.1 5.921c-.018 1.229-.039 2.457-.06 3.684-.017.939-.212 2.098.345 2.921.242.358 1.489-.561 1.627-.793.033-.056.063-.112.092-.168-.27.721-.548 1.44-.829 2.155-1.906-1.669-4.088-3.014-6.107-4.549v.005Zm7.261 1.499a3.17 3.17 0 0 0 .056-.343c.014-.134-.379-.057-.79.113-.067-.649.024-1.348.033-1.948l.063-3.683.12-7.219c0-.18-.527-.047-.993.187.15-.418.298-.833.472-1.245.28-.69 1.042-2.836 2.003-2.57.297.09.558.275.744.525-.487.19-1.065.522-1.029.841.414 3.708.524 7.444.33 11.171 0 .085.123.096.31.057a56.062 56.062 0 0 1-1.319 4.117v-.003ZM280.938 144.891c-.304-1.101-1.611-1.438-2.608-1.505-1.398-.094-2.61.323-3.8 1.019a24.18 24.18 0 0 0-3.883 2.807c.422-1.83.639-3.68-.173-5.46-.49-1.076-1.362-2.005-2.53-2.323-1.101-.3-2.628-.292-3.329.742-1.546 2.28-1.546 5.616-1.245 8.241.376 3.295 1.354 6.508 2.264 9.686.079.27.623.348 1.154.33.554.122 1.619.091 1.845-.056 2.729-1.835 5.473-3.703 7.826-6.017a21.094 21.094 0 0 0 2.983-3.601c.62-.976 1.833-2.642 1.496-3.863Zm-3.248-.773c.382-.148.232-.193.583.102.25.204.414.495.457.815-.375-.026-.846-.012-1.107.206-.783.654-1.56 1.315-2.332 1.983l1.32-1.693c.117-.15-.35-.284-.885-.334.4-.256.809-.503 1.228-.726.238-.132.484-.25.736-.353Zm-8.925.974a2.854 2.854 0 0 0-.319-.035c.093-.547.185-1.094.275-1.641.076.555.091 1.117.044 1.676Zm-3.271-.25c.246.019.493.015.737-.011l-.485 2.846c-.027.161.44.295.954.336a17.193 17.193 0 0 1-.741 2.74c-.062.173.335.253.797.281-.213.257-.424.517-.631.78-.515-2.314-.833-4.668-.623-6.968l-.008-.004Zm1.209 9.225a.46.46 0 0 0 .157-.077 2294.8 2294.8 0 0 1 2.594-2.249l-2.298 2.948c-.155.2.849.407 1.557.369a72.259 72.259 0 0 0-1.247 1.692c-.255-.881-.518-1.777-.763-2.683Zm4.486.773a75.117 75.117 0 0 1 7.016-7.897l-.283.524c-1.617 2.977-4.059 5.317-6.734 7.374l.001-.001Z" fill="#000"/></svg>